<?xml version="1.0" encoding="UTF-8" standalone="no"?>
<!DOCTYPE svg PUBLIC "-//W3C//DTD SVG 1.1//EN" "http://www.w3.org/Graphics/SVG/1.1/DTD/svg11.dtd">
<svg width="100%" height="100%" viewBox="0 0 700 577" version="1.1" xmlns="http://www.w3.org/2000/svg" xmlns:xlink="http://www.w3.org/1999/xlink" xml:space="preserve" xmlns:serif="http://www.serif.com/" style="fill-rule:evenodd;clip-rule:evenodd;stroke-linejoin:round;stroke-miterlimit:2;">
    <g>
        <path d="M145.04,484.96C147.11,487.069 149.927,488.276 152.88,488.319L155.118,488.319L245.278,471.518L248.079,469.839L542.079,175.839C552.513,165.347 558.364,151.155 558.364,136.359C558.364,121.566 552.512,107.371 542.079,96.879L533.118,87.918L533.122,87.922C522.63,77.488 508.434,71.637 493.642,71.637C478.845,71.637 464.654,77.488 454.162,87.922L160.722,381.362L158.484,382.483C156.632,384.213 156.175,386.967 157.363,389.202L141.683,475.444C141.229,478.967 142.475,482.502 145.042,484.963L145.04,484.96ZM243.04,459.198L210.001,426.159L487.201,148.959L520.24,181.998L243.04,459.198ZM170.802,386.96L448.002,109.76L479.361,141.119L202.161,418.319L170.802,386.96ZM525.282,95.76L534.243,104.721L534.239,104.717C542.618,113.115 547.325,124.494 547.325,136.358C547.325,148.222 542.618,159.6 534.239,167.999L528.079,174.159L455.841,101.921L462.001,95.761C470.399,87.382 481.778,82.675 493.642,82.675C505.506,82.675 516.884,87.382 525.283,95.761L525.282,95.76ZM166.882,399.28L230.718,462.557L152.32,477.116L166.882,399.28Z" style="fill:white;fill-rule:nonzero;stroke:white;stroke-width:1px;"/>
        <g id="s">
        </g>
        <g id="b">
        </g>
        <g id="a">
        </g>
        <g id="h">
        </g>
        <g id="c">
        </g>
        <g id="a1" serif:id="a">
        </g>
        <g id="j">
        </g>
        <g id="g">
        </g>
        <g id="f">
        </g>
        <g id="e">
        </g>
        <g id="r">
        </g>
        <g id="b1" serif:id="b">
        </g>
        <g id="g1" serif:id="g">
        </g>
        <g id="i">
        </g>
        <g id="h1" serif:id="h">
        </g>
        <g id="f1" serif:id="f">
        </g>
        <g id="q">
        </g>
        <g id="b2" serif:id="b">
        </g>
        <g id="d">
        </g>
        <g id="p">
        </g>
        <g id="c1" serif:id="c">
        </g>
        <g id="i1" serif:id="i">
        </g>
        <g id="a2" serif:id="a">
        </g>
        <g id="e1" serif:id="e">
        </g>
        <g id="d1" serif:id="d">
        </g>
        <g id="o">
        </g>
        <g id="n">
        </g>
        <g id="m">
        </g>
        <g id="b3" serif:id="b">
        </g>
        <g id="d2" serif:id="d">
        </g>
        <g id="l">
        </g>
        <g id="a3" serif:id="a">
        </g>
        <g id="k">
        </g>
        <g id="c2" serif:id="c">
        </g>
    </g>
</svg>
