<?xml version="1.0" encoding="UTF-8" standalone="no"?>
<!DOCTYPE svg PUBLIC "-//W3C//DTD SVG 1.1//EN" "http://www.w3.org/Graphics/SVG/1.1/DTD/svg11.dtd">
<svg width="100%" height="100%" viewBox="0 0 700 560" version="1.1" xmlns="http://www.w3.org/2000/svg" xmlns:xlink="http://www.w3.org/1999/xlink" xml:space="preserve" xmlns:serif="http://www.serif.com/" style="fill-rule:evenodd;clip-rule:evenodd;stroke-linejoin:round;stroke-miterlimit:2;">
    <g>
        <path d="M350,504C348.32,504 346.078,503.441 344.961,501.762L277.762,434.563C275.524,432.324 274.961,429.524 276.082,426.723C277.203,423.922 279.442,422.242 282.242,421.684C296.801,420.004 309.683,413.285 319.762,403.204C332.082,390.884 338.801,374.083 338.801,356.724C338.801,339.365 332.083,322.564 319.762,310.244C307.442,297.924 290.641,291.205 273.282,291.205C255.923,291.205 239.122,297.924 226.802,310.244C216.724,320.322 210.001,333.205 208.322,347.764C207.764,350.565 206.084,352.803 203.283,353.924C200.482,355.045 197.682,353.924 195.443,352.244L128.244,285.045C126.561,283.924 126.002,282.241 126.002,280.002C126.002,277.764 126.561,276.08 128.241,274.963L183.12,220.084C174.159,216.162 165.761,210.565 159.042,203.283C143.921,188.162 135.522,168.002 135.522,146.162C135.522,124.881 143.92,104.162 159.042,89.041C174.163,73.92 194.323,65.521 216.163,65.521C237.444,65.521 258.163,73.92 273.284,89.041C280.002,95.76 286.163,104.162 290.085,113.119L344.964,58.24C347.764,55.439 352.803,55.439 355.605,58.24L413.285,115.92C417.206,104.158 423.926,92.959 432.887,83.998C448.008,68.877 468.168,60.478 490.008,60.478C511.289,60.478 532.008,68.877 547.129,83.998C578.488,115.357 578.488,166.318 547.129,197.678C538.168,206.639 526.969,213.358 515.207,217.28L572.887,274.96C575.687,277.761 575.687,282.8 572.887,285.601L355.047,501.761C353.929,503.441 351.687,503.999 350.007,503.999L350,504ZM297.922,433.441L350,485.519L556.08,279.999L494.478,218.397C492.24,216.159 491.677,213.358 492.798,210.557C493.919,207.756 496.158,206.077 498.959,205.518C512.958,203.28 526.4,197.12 536.479,187.038C562.241,161.276 562.241,119.839 536.479,94.077C524.159,81.757 507.358,75.038 489.999,75.038C472.64,75.038 455.839,81.757 443.519,94.077C433.441,104.155 426.718,117.038 425.039,131.597C424.48,134.398 422.8,136.636 419.999,137.757C417.199,138.878 414.398,137.757 412.16,136.078L350.558,74.476L291.765,132.16C290.085,133.839 287.284,134.96 284.483,133.839C281.683,133.281 280.003,131.039 279.444,128.8C276.643,117.601 270.483,107.519 262.643,99.679C250.323,87.359 233.522,80.64 216.163,80.64C198.804,80.64 182.003,87.359 169.683,99.679C143.921,125.441 143.921,166.878 169.683,192.64C177.523,200.48 187.605,206.64 198.804,209.441C201.605,210 203.285,212.242 203.843,214.48C204.402,217.281 203.843,219.519 202.164,221.762L143.926,280L196.004,332.078C199.926,319.758 206.645,309.116 215.606,299.597C230.727,284.477 250.887,276.078 272.727,276.078C294.008,276.078 314.727,284.476 329.848,299.597C344.969,314.719 353.368,334.878 353.368,356.718C353.368,378.558 344.969,398.718 329.848,413.839C320.883,423.359 309.684,430.077 297.926,433.441L297.922,433.441Z" style="fill-rule:nonzero;"/>
        <g id="v">
        </g>
        <g id="d">
        </g>
        <g id="a">
        </g>
        <g id="l">
        </g>
        <g id="c">
        </g>
        <g id="a1" serif:id="a">
        </g>
        <g id="k">
        </g>
        <g id="j">
        </g>
        <g id="i">
        </g>
        <g id="h">
        </g>
        <g id="g">
        </g>
        <g id="u">
        </g>
        <g id="f">
        </g>
        <g id="a2" serif:id="a">
        </g>
        <g id="e">
        </g>
        <g id="e1" serif:id="e">
        </g>
        <g id="b">
        </g>
        <g id="t">
        </g>
        <g id="s">
        </g>
        <g id="d1" serif:id="d">
        </g>
        <g id="b1" serif:id="b">
        </g>
        <g id="f1" serif:id="f">
        </g>
        <g id="c1" serif:id="c">
        </g>
        <g id="r">
        </g>
        <g id="a3" serif:id="a">
        </g>
        <g id="q">
        </g>
        <g id="b2" serif:id="b">
        </g>
        <g id="g1" serif:id="g">
        </g>
        <g id="p">
        </g>
        <g id="o">
        </g>
        <g id="d2" serif:id="d">
        </g>
        <g id="b3" serif:id="b">
        </g>
        <g id="n">
        </g>
        <g id="a4" serif:id="a">
        </g>
        <g id="m">
        </g>
        <g id="c2" serif:id="c">
        </g>
    </g>
</svg>
