<?xml version="1.0" encoding="UTF-8" standalone="no"?>
<!DOCTYPE svg PUBLIC "-//W3C//DTD SVG 1.1//EN" "http://www.w3.org/Graphics/SVG/1.1/DTD/svg11.dtd">
<svg width="100%" height="100%" viewBox="0 0 700 508" version="1.1" xmlns="http://www.w3.org/2000/svg" xmlns:xlink="http://www.w3.org/1999/xlink" xml:space="preserve" xmlns:serif="http://www.serif.com/" style="fill-rule:evenodd;clip-rule:evenodd;stroke-linejoin:round;stroke-miterlimit:2;">
    <g transform="matrix(1.81571,0,0,1.81571,-281.999,-255.897)">
        <path d="M453.655,240.583L389.969,175.248C385.215,170.494 382.035,170.908 376.781,176.154L353.13,199.254L247.811,305.674C242.557,310.928 240.491,315.772 245.245,320.518L309.483,384.756C314.237,389.51 317.975,388.541 323.225,383.291L453.296,253.771C458.546,248.517 458.409,245.337 453.655,240.583ZM318.7,378.22C317.329,379.599 315.653,379.677 315.098,379.126L250.879,314.899C250.333,314.345 250.411,312.677 251.786,311.298L312.911,250.169L379.825,317.091L318.7,378.22ZM448.22,248.7L387.103,309.817L320.189,242.895L381.306,181.778C382.685,180.399 384.357,180.317 384.908,180.864L449.138,245.094C449.684,245.645 449.599,247.321 448.22,248.699L448.22,248.7Z" style="fill:white;fill-rule:nonzero;"/>
        <g transform="matrix(0.581352,0,0,0.581352,159.867,103.879)">
            <path d="M402.74,243.31C402.74,252.177 395.549,259.369 386.685,259.369C377.818,259.369 370.626,252.178 370.626,243.31C370.626,234.447 377.817,227.255 386.685,227.255C395.548,227.255 402.74,234.446 402.74,243.31" style="fill:rgb(254,254,254);fill-rule:nonzero;stroke:white;stroke-width:1px;"/>
        </g>
        <g transform="matrix(0.718237,0,0,0.718237,36.9929,87.242)">
            <path d="M357.94,313.21C357.94,319.14 353.131,323.944 347.206,323.944C341.276,323.944 336.468,319.139 336.468,313.21C336.468,307.28 341.277,302.476 347.206,302.476C353.132,302.476 357.94,307.281 357.94,313.21" style="fill:rgb(254,254,254);fill-rule:nonzero;stroke:white;stroke-width:0.3px;"/>
        </g>
        <g transform="matrix(0.718237,0,0,0.718237,94.8041,88.5864)">
            <path d="M357.94,313.21C357.94,319.14 353.131,323.944 347.206,323.944C341.276,323.944 336.468,319.139 336.468,313.21C336.468,307.28 341.277,302.476 347.206,302.476C353.132,302.476 357.94,307.281 357.94,313.21" style="fill:rgb(254,254,254);fill-rule:nonzero;stroke:white;stroke-width:0.3px;"/>
        </g>
        <g transform="matrix(0.718237,0,0,0.718237,67.9152,87.242)">
            <path d="M357.94,313.21C357.94,319.14 353.131,323.944 347.206,323.944C341.276,323.944 336.468,319.139 336.468,313.21C336.468,307.28 341.277,302.476 347.206,302.476C353.132,302.476 357.94,307.281 357.94,313.21" style="fill:rgb(254,254,254);fill-rule:nonzero;stroke:white;stroke-width:0.3px;"/>
        </g>
    </g>
</svg>
