<?xml version="1.0" encoding="UTF-8" standalone="no"?>
<!DOCTYPE svg PUBLIC "-//W3C//DTD SVG 1.1//EN" "http://www.w3.org/Graphics/SVG/1.1/DTD/svg11.dtd">
<svg width="100%" height="100%" viewBox="0 0 700 513" version="1.1" xmlns="http://www.w3.org/2000/svg" xmlns:xlink="http://www.w3.org/1999/xlink" xml:space="preserve" xmlns:serif="http://www.serif.com/" style="fill-rule:evenodd;clip-rule:evenodd;stroke-linejoin:round;stroke-miterlimit:2;">
    <g transform="matrix(1.5976,0,0,1.5976,-200.657,-202.935)">
        <path d="M452.842,317.044L443.707,317.044L443.707,286.54L391.449,286.54L391.449,317.044L380.25,317.044L380.25,286.54L327.98,286.54L327.98,316.418L314.295,316.418L314.291,250.665C335.326,247.911 352.245,229.911 352.245,208.138C352.245,184.462 332.987,165.204 309.315,165.204C285.631,165.204 266.374,184.462 266.374,208.138C266.374,229.911 283.935,247.908 304.966,250.665L304.966,316.418L247.152,317.044C237.891,317.044 233.481,322.705 233.481,331.967L233.481,378.005C233.481,387.267 237.89,391.676 247.152,391.676L452.842,391.676C462.104,391.676 466.513,387.267 466.513,378.005L466.513,331.341C466.513,322.079 462.112,317.044 452.842,317.044ZM275.076,208.14C275.076,190.64 292.448,172.65 309.948,172.65C327.448,172.65 342.93,190.64 342.93,208.14C342.93,225.64 326.822,242.378 309.322,242.378C291.818,242.378 275.076,225.64 275.076,208.14ZM402.65,297.738L432.509,297.738L432.509,315.791L402.65,315.791L402.65,297.738ZM339.177,297.738L369.048,297.738L369.048,317.043L339.177,317.043L339.177,297.738ZM458.447,378.004C458.447,381.094 455.943,383.606 452.845,383.606L247.155,383.606C244.058,383.606 241.554,381.098 241.554,378.004L241.554,331.34C241.554,328.25 244.058,325.738 247.155,325.738L452.845,325.738C455.943,325.738 458.447,328.246 458.447,331.34L458.447,378.004Z" style="fill:rgb(254,254,254);fill-rule:nonzero;"/>
    </g>
</svg>
