<?xml version="1.0" encoding="UTF-8" standalone="no"?>
<!DOCTYPE svg PUBLIC "-//W3C//DTD SVG 1.1//EN" "http://www.w3.org/Graphics/SVG/1.1/DTD/svg11.dtd">
<svg width="100%" height="100%" viewBox="0 0 700 700" version="1.1" xmlns="http://www.w3.org/2000/svg" xmlns:xlink="http://www.w3.org/1999/xlink" xml:space="preserve" xmlns:serif="http://www.serif.com/" style="fill-rule:evenodd;clip-rule:evenodd;stroke-linejoin:round;stroke-miterlimit:2;">
    <rect x="-6" y="-1" width="787" height="774" style="fill:white;"/>
    <g>
        <path d="M256.76,269.73L215.576,269.73C211.142,269.73 207.537,273.339 207.537,277.769L207.537,457.559C207.537,461.993 211.146,465.598 215.576,465.598L256.76,465.598C261.194,465.598 264.799,461.989 264.799,457.559L264.799,277.769C264.799,273.339 261.19,269.73 256.76,269.73ZM248.721,449.52L223.619,449.52L223.619,285.81L248.721,285.81L248.721,449.52Z" style="fill-rule:nonzero;"/>
        <path d="M335.55,269.73L294.366,269.73C289.932,269.73 286.327,273.339 286.327,277.769L286.327,457.559C286.327,461.993 289.936,465.598 294.366,465.598L335.55,465.598C339.984,465.598 343.589,461.989 343.589,457.559L343.589,277.769C343.593,273.339 339.984,269.73 335.55,269.73ZM327.511,449.52L302.409,449.52L302.409,285.81L327.511,285.81L327.511,449.52Z" style="fill-rule:nonzero;"/>
        <path d="M414.37,269.73L373.186,269.73C368.752,269.73 365.147,273.339 365.147,277.769L365.147,457.559C365.147,461.993 368.756,465.598 373.186,465.598L414.37,465.598C418.804,465.598 422.409,461.989 422.409,457.559L422.409,277.769C422.409,273.339 418.804,269.73 414.37,269.73ZM406.331,449.52L381.229,449.52L381.229,285.81L406.331,285.81L406.331,449.52Z" style="fill-rule:nonzero;"/>
        <path d="M523,218.68L463.012,218.68L463.012,208.215C472.012,208.449 481.457,206.996 489.446,201.856C501.387,194.188 507.587,180.501 507.801,160.243C507.684,159.047 504.528,130.63 482.582,118.337C470.797,111.786 456.363,111.2 439.477,116.669C441.106,103.177 440.887,83.271 429.848,66.837C419.278,51.13 401.434,42.146 377.332,40.185C375.922,40.028 344.68,35.692 323.227,71.662C312.891,68.486 293.223,64.544 279.043,74.701C269.063,81.857 263.981,94.076 263.902,111.139C254.312,111.158 239.41,112.983 227.703,122.475C219.269,129.299 213.957,138.752 211.82,150.674C199.82,149.498 177.972,149.439 162.207,160.834C151.992,168.209 145.988,178.975 144.363,192.838C141.941,213.69 150.926,234.318 166.933,247.733L166.933,494.593C166.933,508.636 178.367,520.066 192.429,520.066L437.519,520.066C451.581,520.066 463.015,508.632 463.015,494.593L463.015,465.609L523.003,465.609C541.222,465.609 556.046,450.785 556.046,432.566L556.046,251.736C556.038,233.509 541.214,218.685 522.995,218.685L523,218.68ZM446.93,226.719L446.93,494.579C446.93,499.755 442.715,503.974 437.516,503.974L192.426,503.974C187.231,503.974 183.012,499.759 183.012,494.579L183.012,257.609C190.289,260.699 197.289,262.371 203.899,262.371C209.762,262.371 215.333,261.176 220.587,258.742C233.903,252.605 244.337,238.777 251.669,217.597C262.571,218.851 282.989,219.402 296.224,208.222C299.536,205.398 303.185,201.124 305.482,194.886C309.759,197.593 315.091,199.945 321.384,200.788C330.13,201.905 338.974,200.042 347.857,195.179C349.329,205.159 353.13,217.87 362.603,226.499C371.681,234.753 383.802,237.679 398.708,235.264C418.829,231.991 432.224,224.752 438.497,213.752C440.243,210.694 441.243,207.674 441.77,204.889C443.372,205.334 445.106,205.772 446.926,206.178L446.93,226.719ZM436.457,186.125C433.477,184.813 430.004,185.418 427.672,187.695C425.316,189.93 424.555,193.383 425.73,196.402C425.75,196.441 427.262,201.031 424.535,205.797C421.965,210.328 414.926,216.348 396.121,219.426C386.141,221.055 378.785,219.465 373.449,214.66C363.742,205.856 362.683,187.265 363.094,180.832C363.289,177.598 361.547,174.555 358.641,173.125C355.778,171.692 352.266,172.125 349.817,174.223C340.5,182.282 331.637,185.774 323.657,184.891C312.969,183.559 306.438,174.34 306.399,174.282C304.379,171.321 300.575,170.028 297.223,171.165C293.809,172.301 291.555,175.555 291.731,179.165C292.082,186.794 290.161,192.286 285.868,195.931C275.907,204.384 255.04,202.263 247.782,200.716C243.782,199.853 239.602,202.306 238.407,206.306C232.407,226.681 224.13,239.427 213.856,244.154C206.68,247.447 198.129,246.88 188.34,242.525C169.828,234.271 158.043,214.15 160.317,194.693C161.395,185.377 165.082,178.552 171.555,173.869C180.047,167.732 191.735,166.22 201.168,166.22C210.168,166.22 217.113,167.592 217.25,167.611C219.543,168.119 221.918,167.513 223.781,166.099C225.625,164.646 226.761,162.49 226.878,160.158C227.449,148.881 231.113,140.412 237.761,134.998C250.527,124.564 270.804,127.545 271.042,127.623C273.515,127.955 275.984,127.252 277.769,125.545C279.574,123.857 280.515,121.447 280.3,118.975C278.91,103.131 281.632,92.62 288.378,87.776C298.499,80.459 317.362,86.127 323.776,88.893C327.737,90.619 332.269,88.932 334.19,85.127C350.116,53.201 373.92,55.967 375.471,56.123C394.963,57.733 408.772,64.322 416.475,75.732C430.397,96.361 421.124,126.974 421.026,127.287C420.085,130.326 421.026,133.662 423.456,135.76C425.866,137.838 429.28,138.311 432.182,136.916C450.244,128.229 464.541,126.678 474.659,132.307C489.073,140.307 491.721,160.959 491.78,160.959C491.605,174.529 487.898,183.725 480.8,188.314C467.757,196.736 444.359,189.599 436.456,186.126L436.457,186.125ZM463.012,275.984L487.879,275.984C493.957,275.984 498.883,280.906 498.883,286.988L498.883,396.118C498.883,402.196 493.961,407.122 487.879,407.122L463.012,407.118L463.012,275.984ZM539.961,432.554C539.961,441.91 532.352,449.519 522.996,449.519L463.012,449.515L463.012,423.199L487.879,423.199C502.805,423.199 514.961,411.043 514.961,396.117L514.961,286.987C514.961,272.061 502.805,259.905 487.879,259.905L463.012,259.905L463.012,234.764L523,234.764C532.356,234.764 539.965,242.374 539.965,251.729L539.961,432.554Z" style="fill-rule:nonzero;"/>
        <path d="M366.5,81.621C362.066,81.621 358.461,85.23 358.461,89.66C358.461,94.094 362.07,97.699 366.5,97.699C379.031,97.699 389.211,107.879 389.211,120.39C389.211,124.824 392.82,128.429 397.25,128.429C401.684,128.429 405.289,124.82 405.289,120.39C405.293,99.015 387.879,81.62 366.5,81.62L366.5,81.621Z" style="fill-rule:nonzero;"/>
        <path d="M327.67,107.68C317.943,105.485 296.94,107.211 287.037,129.27C285.232,133.329 287.037,138.075 291.076,139.899C292.154,140.368 293.271,140.606 294.369,140.606C297.428,140.606 300.369,138.84 301.705,135.86C308.51,120.641 322.611,123.055 324.217,123.368C328.608,124.407 332.768,121.563 333.748,117.29C334.709,112.958 331.987,108.661 327.67,107.68Z" style="fill-rule:nonzero;"/>
        <path d="M213.71,212.35C207.433,211.038 203.081,208.448 200.788,204.663C197.081,198.604 199.101,190.722 199.159,190.463C200.354,186.229 197.905,181.795 193.667,180.581C189.37,179.346 184.94,181.815 183.726,186.053C183.296,187.546 179.745,200.838 186.94,212.842C191.628,220.647 199.51,225.787 210.374,228.08C210.945,228.198 211.492,228.256 212.042,228.256C215.769,228.256 219.101,225.647 219.906,221.881C220.827,217.526 218.046,213.268 213.71,212.35Z" style="fill-rule:nonzero;"/>
        <path d="M477.95,175.87C484.462,162.319 477.755,145.847 476.95,144.003C475.223,139.944 470.516,138.023 466.399,139.808C462.34,141.554 460.438,146.28 462.204,150.359C463.438,153.261 466.36,162.91 463.477,168.929C462.672,170.577 461.047,172.948 456.063,174.323C451.786,175.518 449.297,179.952 450.473,184.225C451.473,187.776 454.688,190.108 458.219,190.108C458.926,190.108 459.653,190.011 460.376,189.815C470.774,186.929 475.676,180.636 477.95,175.87Z" style="fill-rule:nonzero;"/>
    </g>
</svg>
