<?xml version="1.0" encoding="UTF-8" standalone="no"?>
<!DOCTYPE svg PUBLIC "-//W3C//DTD SVG 1.1//EN" "http://www.w3.org/Graphics/SVG/1.1/DTD/svg11.dtd">
<svg width="100%" height="100%" viewBox="0 0 700 700" version="1.1" xmlns="http://www.w3.org/2000/svg" xmlns:xlink="http://www.w3.org/1999/xlink" xml:space="preserve" xmlns:serif="http://www.serif.com/" style="fill-rule:evenodd;clip-rule:evenodd;stroke-linejoin:round;stroke-miterlimit:2;">
    <rect x="-6" y="-14" width="744" height="749" style="fill:white;"/>
    <g>
        <path d="M289.04,309.42L281.634,311.627C277.278,312.932 274.81,317.51 276.103,321.865C277.165,325.439 280.438,327.748 283.982,327.748C284.755,327.748 285.548,327.627 286.329,327.408L293.735,325.201C298.091,323.896 300.56,319.318 299.267,314.963C297.966,310.604 293.419,308.174 289.04,309.42Z" style="fill-rule:nonzero;"/>
        <path d="M231.14,310.53L223.734,312.717C219.378,314.003 216.886,318.581 218.171,322.936C219.234,326.511 222.507,328.839 226.062,328.839C226.824,328.839 227.617,328.718 228.39,328.499L235.796,326.311C240.152,325.026 242.644,320.448 241.359,316.092C240.074,311.753 235.495,309.323 231.14,310.53Z" style="fill-rule:nonzero;"/>
        <path d="M245.56,265.77L238.142,267.969C233.786,269.254 231.306,273.833 232.603,278.188C233.658,281.762 236.931,284.071 240.482,284.071C241.255,284.071 242.036,283.962 242.822,283.731L250.24,281.532C254.595,280.247 257.075,275.669 255.779,271.313C254.493,266.965 249.939,264.497 245.56,265.77Z" style="fill-rule:nonzero;"/>
        <path d="M304.63,264.66L297.224,266.867C292.868,268.164 290.4,272.738 291.693,277.097C292.755,280.671 296.028,282.968 299.571,282.968C300.345,282.968 301.138,282.859 301.919,282.628L309.325,280.421C313.681,279.124 316.15,274.55 314.857,270.191C313.575,265.844 308.997,263.383 304.63,264.66Z" style="fill-rule:nonzero;"/>
        <path d="M195.47,289.87L188.052,292.077C183.704,293.374 181.228,297.948 182.521,302.296C183.583,305.87 186.857,308.179 190.4,308.179C191.173,308.179 191.966,308.077 192.747,307.839L200.165,305.632C204.513,304.347 206.99,299.761 205.697,295.402C204.408,291.066 199.857,288.554 195.47,289.871L195.47,289.87Z" style="fill-rule:nonzero;"/>
        <path d="M360.41,296.51C359.137,292.162 354.609,289.713 350.191,290.971L342.773,293.17C338.418,294.455 335.937,299.033 337.234,303.381C338.289,306.955 341.562,309.283 345.113,309.283C345.886,309.283 346.668,309.162 347.453,308.944L354.871,306.737C359.226,305.444 361.707,300.865 360.41,296.51Z" style="fill-rule:nonzero;"/>
        <path d="M554.93,205.34L554.93,180.379C554.93,165.645 542.946,153.656 528.207,153.656L510.519,153.656L495.285,40.946C494.723,36.872 491.25,33.829 487.133,33.829L464.77,33.829C460.652,33.829 457.18,36.872 456.617,40.946L441.359,153.656L423.691,153.656C408.957,153.656 396.949,165.64 396.949,180.379L396.949,205.34C383.008,206.227 371.855,217.574 371.855,231.731L371.855,253.059C346.171,240.184 315.714,232.825 283.984,232.825C200.703,232.825 132.864,280.626 130.914,339.885C130.883,339.979 130.809,340.045 130.782,340.139L121.043,372.662C118.91,379.791 120.164,387.162 123.657,392.572C121.848,395.959 120.793,399.732 120.793,403.701L120.793,419.502C120.793,426.475 123.953,432.596 128.77,436.94C123.348,442.706 119.961,450.417 119.961,458.932L119.961,477.284C119.961,495.03 134.406,509.487 152.152,509.487L373.892,509.487C377.873,519.253 387.404,526.19 398.58,526.19L553.31,526.19C568.044,526.19 580.052,514.186 580.052,499.448L580.048,231.728C580.052,217.568 568.876,206.224 554.935,205.337L554.93,205.34ZM471.957,50.27L479.945,50.27L493.918,153.66L457.961,153.66L471.957,50.27ZM413.414,180.38C413.414,174.708 418.012,170.103 423.691,170.103L528.211,170.103C533.871,170.103 538.469,174.712 538.469,180.38L538.469,205.013L530.582,205.013L530.582,182.99C530.582,178.455 526.887,174.771 522.352,174.771C517.817,174.771 514.121,178.455 514.121,182.99L514.121,205.013L507.375,205.013L507.375,182.99C507.375,178.455 503.68,174.771 499.145,174.771C494.606,174.771 490.914,178.455 490.914,182.99L490.914,205.013L484.188,205.013L484.188,182.99C484.188,178.455 480.492,174.771 475.957,174.771C471.418,174.771 467.727,178.455 467.727,182.99L467.727,205.013L460.98,205.013L460.98,182.99C460.98,178.455 457.285,174.771 452.75,174.771C448.215,174.771 444.519,178.455 444.519,182.99L444.519,205.013L437.793,205.013L437.793,182.99C437.793,178.455 434.098,174.771 429.562,174.771C425.027,174.771 421.332,178.455 421.332,182.99L421.332,205.013L413.422,205.013L413.414,180.38ZM371.859,350.72L371.859,393.31C368.832,396.115 365.328,398.017 361.007,397.638C356.55,397.58 352.374,395.63 349.253,392.177L338.28,379.989C333.132,374.286 326.436,372.001 318.796,371.216C311.39,371.274 304.503,374.47 299.401,380.251L287.065,394.263C285.307,396.271 282.627,398.298 279.034,398.458C276.061,398.318 273.01,396.251 270.432,392.677L263.213,382.638C257.592,374.83 249.994,370.353 241.811,370.029C234.093,370.01 226.252,373.404 220.362,380.388L210.354,392.271C207.565,395.584 203.929,397.431 200.135,397.431L200.104,397.431C196.311,397.431 192.667,395.603 189.854,392.31L179.366,379.943C174.198,373.881 166.858,370.346 159.241,370.267C159.14,370.248 159.03,370.248 158.929,370.248C151.319,370.248 144.222,373.521 138.913,379.463L136.612,382.033C136.323,380.806 136.252,379.201 136.792,377.377L144.768,350.717L371.858,350.717L371.859,350.72ZM144.459,426.728C140.475,426.728 137.232,423.498 137.232,419.501L137.232,403.7C137.232,402.349 137.709,401.118 138.393,400.001C141.557,399.466 144.596,397.833 147.061,395.048L151.186,390.431C153.334,388.021 156.084,386.716 158.943,386.716C161.162,386.755 164.697,388.122 166.842,390.611L177.33,402.959C183.232,409.904 191.533,413.881 200.107,413.881L200.165,413.881C208.888,413.861 216.97,409.966 222.942,402.877L232.95,390.994C234.739,388.845 237.388,386.376 241.193,386.478C244.185,386.58 247.267,388.646 249.864,392.24L257.083,402.279C262.634,410.009 270.142,414.486 278.224,414.888C278.615,414.907 279.006,414.927 279.4,414.927C286.767,414.927 293.834,411.474 299.416,405.13L311.744,391.118C313.689,388.911 316.232,387.684 318.9,387.684L318.951,387.684C321.592,387.684 324.119,388.868 326.076,391.016L337.049,403.18C343.264,410.086 351.686,413.942 360.76,414.082C364.631,413.996 368.338,413.231 371.862,412.02L371.862,426.731L152.152,426.727L144.459,426.728ZM344.349,443.189L288.103,470.13L283.576,443.189L344.349,443.189ZM283.986,249.259C316.291,249.259 347.174,257.271 371.857,271.489L371.857,334.247L147.697,334.251C153.822,286.692 212.611,249.259 283.987,249.259L283.986,249.259ZM136.396,477.279L136.396,458.927C136.396,450.236 143.462,443.189 152.146,443.189L266.896,443.189L273.701,483.623C274.134,486.174 275.728,488.361 278.029,489.564C279.212,490.166 280.509,490.486 281.814,490.486C283.029,490.486 284.244,490.205 285.369,489.662L371.865,448.228L371.865,493.013L152.145,493.017C143.465,493.017 136.399,485.97 136.399,477.279L136.396,477.279ZM563.576,499.443C563.576,505.123 558.978,509.72 553.299,509.72L398.569,509.72C392.909,509.72 388.311,505.122 388.311,499.443L388.311,437.588C388.448,437.182 388.428,436.744 388.498,436.318C388.577,435.858 388.772,435.44 388.772,434.959C388.772,434.881 388.729,434.818 388.729,434.744C388.717,434.299 388.549,433.873 388.463,433.428C388.413,433.178 388.385,432.924 388.311,432.678L388.311,231.728C388.311,226.056 392.909,221.451 398.569,221.451L553.299,221.451C558.983,221.451 563.576,226.06 563.576,231.728L563.576,499.443Z" style="fill-rule:nonzero;"/>
        <path d="M537.59,432.53C533.055,432.53 529.36,436.225 529.36,440.76L529.36,463.445C529.36,467.98 533.055,471.675 537.59,471.675C542.125,471.675 545.821,467.98 545.821,463.445L545.821,440.76C545.821,436.225 542.125,432.53 537.59,432.53Z" style="fill-rule:nonzero;"/>
        <path d="M537.59,241.24C533.055,241.24 529.36,244.924 529.36,249.459L529.36,418.089C529.36,422.624 533.055,426.319 537.59,426.319C542.125,426.319 545.821,422.624 545.821,418.089L545.821,249.469C545.821,244.934 542.125,241.246 537.59,241.246L537.59,241.24Z" style="fill-rule:nonzero;"/>
    </g>
</svg>
