<?xml version="1.0" encoding="UTF-8" standalone="no"?>
<!DOCTYPE svg PUBLIC "-//W3C//DTD SVG 1.1//EN" "http://www.w3.org/Graphics/SVG/1.1/DTD/svg11.dtd">
<svg width="100%" height="100%" viewBox="0 0 700 700" version="1.1" xmlns="http://www.w3.org/2000/svg" xmlns:xlink="http://www.w3.org/1999/xlink" xml:space="preserve" xmlns:serif="http://www.serif.com/" style="fill-rule:evenodd;clip-rule:evenodd;stroke-linejoin:round;stroke-miterlimit:2;">
    <rect x="-12" y="-20" width="829" height="768" style="fill:white;"/>
    <g>
        <path d="M582.17,213.52C581.994,213.231 581.838,212.985 581.627,212.715C580.713,211.543 579.576,210.579 578.17,210.032C578.139,210.02 578.127,209.985 578.096,209.973L448.186,161.102C449.045,157.196 449.565,153.169 449.565,149.008C449.565,119.899 427.295,96.141 398.936,93.192C402.385,66.528 417.116,54.497 418.088,53.743C421.721,50.981 422.451,45.81 419.713,42.134C416.912,38.439 411.717,37.728 408.065,40.47C406.94,41.322 386.147,57.947 382.385,93.697C365.787,96.924 351.967,107.545 344.01,121.888L317.975,112.091C316.635,111.583 315.194,111.423 313.776,111.646C167.566,134.521 119.706,210.201 117.736,213.406C117.657,213.531 117.689,213.699 117.614,213.828C116.966,215.011 116.497,216.304 116.497,217.75L116.497,512.88C116.497,517.465 120.232,521.2 124.818,521.2L575.168,521.2C579.753,521.2 583.488,517.465 583.488,512.88L583.488,217.75C583.484,216.175 582.929,214.785 582.164,213.523L582.17,213.52ZM566.85,226.071L566.85,305.473L133.15,307.996L133.15,226.074L566.85,226.071ZM133.15,324.633L566.85,322.11L566.85,383.458C558.194,382.36 552.772,379.606 546.819,376.473C538.417,372.028 528.897,366.997 510.733,366.997C492.549,366.997 483.03,372.032 474.628,376.473C466.956,380.512 460.339,384.004 446.296,384.004C432.273,384.004 425.655,380.512 418.007,376.473C409.624,372.028 400.109,366.997 381.964,366.997C363.819,366.997 354.323,372.032 345.941,376.473C338.289,380.512 331.675,384.004 317.652,384.004C303.648,384.004 297.031,380.512 289.402,376.473C281,372.028 271.504,366.997 253.359,366.997C235.234,366.997 225.738,372.032 217.355,376.473C209.722,380.512 203.128,384.004 189.125,384.004C175.122,384.004 168.504,380.512 160.875,376.473C153.918,372.794 145.902,368.879 133.152,367.583L133.15,324.633ZM133.15,384.188C141.759,385.29 147.166,388.04 153.08,391.169C161.482,395.614 170.978,400.645 189.123,400.645C207.248,400.645 216.764,395.61 225.146,391.169C232.779,387.129 239.373,383.637 253.357,383.637C267.361,383.637 273.978,387.13 281.607,391.169C290.009,395.614 299.505,400.645 317.65,400.645C335.795,400.645 345.31,395.61 353.712,391.169C361.345,387.129 367.958,383.637 381.962,383.637C395.985,383.637 402.603,387.13 410.251,391.169C418.634,395.614 428.149,400.645 446.294,400.645C464.458,400.645 473.978,395.61 482.38,391.169C490.052,387.129 496.669,383.637 510.732,383.637C524.775,383.637 531.392,387.13 539.064,391.169C546.025,394.852 554.06,398.766 566.849,400.059L566.849,428.875L133.149,428.875L133.15,384.188ZM529.43,209.428L203.54,209.428C239.239,176.51 293.188,161.303 337.29,154.319C340.013,182.893 363.88,205.409 393.153,205.409C414.208,205.409 432.387,193.682 442.083,176.55L529.43,209.428ZM382.04,111.03C382.181,113.651 382.454,116.37 382.786,119.147C380.442,120.831 378.966,123.159 378.966,125.757C378.966,130.874 384.614,135.018 391.579,135.018C398.544,135.018 404.192,130.874 404.192,125.757C404.192,122.842 402.243,120.346 399.371,118.651C398.965,115.589 398.657,112.62 398.512,109.796C417.895,112.444 432.926,128.929 432.926,149.011C432.926,170.929 415.086,188.769 393.149,188.769C371.231,188.769 353.391,170.929 353.391,149.011C353.387,130.972 365.543,115.874 382.039,111.031L382.04,111.03ZM314.177,128.432L337.978,137.37C285.97,145.256 219.428,164.261 180.548,209.429L142.169,209.429C162.099,187.843 213.259,144.706 314.179,128.433L314.177,128.432ZM133.147,504.552L133.147,445.513L566.847,445.513L566.847,504.552L133.147,504.552Z" style="fill-rule:nonzero;"/>
    </g>
</svg>
