<?xml version="1.0" encoding="UTF-8" standalone="no"?>
<!DOCTYPE svg PUBLIC "-//W3C//DTD SVG 1.1//EN" "http://www.w3.org/Graphics/SVG/1.1/DTD/svg11.dtd">
<svg width="100%" height="100%" viewBox="0 0 700 700" version="1.1" xmlns="http://www.w3.org/2000/svg" xmlns:xlink="http://www.w3.org/1999/xlink" xml:space="preserve" xmlns:serif="http://www.serif.com/" style="fill-rule:evenodd;clip-rule:evenodd;stroke-linejoin:round;stroke-miterlimit:2;">
    <rect x="-16" y="-16" width="740" height="724" style="fill:white;"/>
    <g transform="matrix(1,0,0,1,0,57)">
        <path d="M271.3,137.87L332.581,137.87C337.015,137.87 340.62,134.261 340.62,129.831L340.62,75.573C340.62,71.139 337.011,67.534 332.581,67.534L271.3,67.534C266.866,67.534 263.261,71.143 263.261,75.573L263.261,129.831C263.261,134.261 266.87,137.87 271.3,137.87ZM279.343,83.612L324.542,83.612L324.542,121.792L279.343,121.792L279.343,83.612Z" style="fill-rule:nonzero;"/>
        <path d="M363.99,137.87L425.271,137.87C429.705,137.87 433.31,134.261 433.31,129.831L433.31,75.573C433.31,71.139 429.701,67.534 425.271,67.534L363.99,67.534C359.556,67.534 355.951,71.143 355.951,75.573L355.951,129.831C355.947,134.261 359.556,137.87 363.99,137.87ZM372.029,83.612L417.228,83.612L417.228,121.792L372.029,121.792L372.029,83.612Z" style="fill-rule:nonzero;"/>
        <path d="M517.1,508.8C517.069,508.394 517.159,507.999 517.061,507.589L501.256,441.081L501.256,185.211C501.256,180.778 497.647,177.172 493.217,177.172L470.686,177.172L470.682,50.552C470.682,46.118 467.073,42.513 462.643,42.513L233.923,42.513C229.489,42.513 225.884,46.122 225.884,50.552L225.884,177.172L207.353,177.172C202.919,177.172 199.314,180.781 199.314,185.211L199.314,439.591C199.239,439.818 198.997,439.939 198.943,440.173L182.943,507.591C182.849,507.997 182.935,508.384 182.903,508.786C182.861,509.318 182.786,509.826 182.853,510.365C182.923,510.99 183.138,511.552 183.349,512.134C183.462,512.447 183.458,512.775 183.611,513.079C183.653,513.169 183.739,513.216 183.786,513.302C184.099,513.872 184.536,514.333 184.978,514.814C185.255,515.111 185.482,515.454 185.798,515.704C186.239,516.056 186.767,516.267 187.282,516.525C187.708,516.732 188.099,516.982 188.552,517.114C188.681,517.154 188.775,517.247 188.907,517.279C189.536,517.415 190.161,517.493 190.771,517.493C190.857,517.493 190.919,517.415 191.005,517.411C192.157,517.38 193.314,517.161 194.4,516.611L222.716,502.256L251.032,516.611C253.305,517.786 256.012,517.786 258.289,516.611L286.566,502.275L314.726,516.611C317.039,517.786 319.707,517.786 322.019,516.611L350.238,502.275L378.437,516.611C380.75,517.786 383.457,517.786 385.73,516.611L413.851,502.275L442.05,516.611C444.363,517.786 447.07,517.786 449.343,516.611L477.425,502.275L505.605,516.611C505.812,516.716 506.039,516.681 506.25,516.767C507.027,517.087 507.824,517.298 508.687,517.357C508.879,517.368 509.062,517.493 509.254,517.493C509.492,517.493 509.691,517.325 509.926,517.306C510.324,517.267 510.711,517.357 511.113,517.259C511.687,517.122 512.144,516.794 512.656,516.548C512.984,516.392 513.309,516.306 513.617,516.107C514.727,515.38 515.609,514.427 516.234,513.29C516.277,513.212 516.367,513.185 516.41,513.103C516.586,512.763 516.586,512.396 516.707,512.048C516.902,511.497 517.101,510.97 517.172,510.384C517.215,509.849 517.148,509.337 517.101,508.806L517.1,508.8ZM241.96,185.21L241.96,58.59L454.6,58.59L454.6,177.17L433.303,177.17L433.303,158.092C433.303,153.658 429.694,150.053 425.264,150.053L363.983,150.053C359.549,150.053 355.944,153.662 355.944,158.092L355.944,177.17L341.237,177.17C341.014,177.17 340.827,177.279 340.608,177.299L340.608,158.092C340.608,153.658 336.998,150.053 332.569,150.053L271.288,150.053C266.854,150.053 263.249,153.662 263.249,158.092L263.249,212.35C263.249,216.784 266.858,220.389 271.288,220.389L307.151,220.389C306.135,221.959 305.077,223.561 304.092,225.116C302.487,227.651 300.659,230.077 298.948,232.569L271.284,232.569C266.85,232.569 263.245,236.178 263.245,240.608L263.245,275.147C255.995,282.284 248.765,288.831 241.948,294.131L241.96,185.21ZM417.23,166.128L417.23,177.167L372.031,177.167L372.031,166.128L417.23,166.128ZM324.539,166.128L324.539,194.741C322.223,198.026 319.965,201.245 317.863,204.307L279.34,204.307L279.34,166.127L324.539,166.128ZM287.066,248.644C284.511,251.847 281.984,255.058 279.339,258.109L279.339,248.644L287.066,248.644ZM276.359,284.746C276.777,284.398 277.129,284.019 277.472,283.598C292.226,268.672 306.476,251.371 317.671,233.703C322.574,225.976 327.964,217.879 334.163,208.976L339.851,349.296C330.988,347.471 317.066,344.55 301.593,341.1C261.14,332.1 239.273,326.1 227.488,322.295C241.922,315.381 259.441,301.682 276.359,284.74L276.359,284.746ZM215.39,193.25L225.882,193.25L225.882,304.89C222.007,307.097 218.519,308.699 215.39,309.714L215.39,193.25ZM215.39,335.09C228.64,340.11 252.98,346.742 298.101,356.785C324.71,362.707 346.714,367.097 346.714,367.097C347.245,367.195 347.753,367.253 348.284,367.253C350.187,367.253 352.03,366.566 353.499,365.312C355.382,363.722 356.401,361.351 356.304,358.878L349.585,193.238L485.175,193.238L485.175,433.978L215.385,433.982L215.39,335.09ZM481.06,486.09C478.748,484.914 476.041,484.914 473.767,486.09L445.685,500.426L417.486,486.09C415.174,484.914 412.467,484.914 410.193,486.09L382.072,500.426L353.873,486.09C351.561,484.914 348.893,484.914 346.58,486.09L318.361,500.426L290.201,486.09C287.888,484.914 285.201,484.914 282.928,486.09L254.651,500.445L226.335,486.09C224.061,484.914 221.354,484.914 219.077,486.09L202.585,494.453L213.116,450.07L486.866,450.07L497.401,494.406L481.06,486.09Z" style="fill-rule:nonzero;"/>
    </g>
</svg>
