<?xml version="1.0" encoding="UTF-8" standalone="no"?>
<!DOCTYPE svg PUBLIC "-//W3C//DTD SVG 1.1//EN" "http://www.w3.org/Graphics/SVG/1.1/DTD/svg11.dtd">
<svg width="100%" height="100%" viewBox="0 0 700 700" version="1.1" xmlns="http://www.w3.org/2000/svg" xmlns:xlink="http://www.w3.org/1999/xlink" xml:space="preserve" xmlns:serif="http://www.serif.com/" style="fill-rule:evenodd;clip-rule:evenodd;stroke-linejoin:round;stroke-miterlimit:2;">
    <rect x="-28" y="-26" width="755" height="736" style="fill:white;"/>
    <g transform="matrix(1,0,0,1,1,55)">
        <path d="M582.65,249.2C582.9,246.165 583.49,243.181 583.49,240.114C583.49,152.309 478.75,80.854 350.01,80.854C221.27,80.854 116.51,152.311 116.51,240.114C116.51,240.493 116.607,240.86 116.607,241.239C116.596,241.411 116.51,241.556 116.51,241.727L116.51,318.27C116.51,406.965 221.27,479.14 350.01,479.14C478.75,479.144 583.49,406.968 583.49,318.21L583.052,251.124C583.048,250.441 582.822,249.827 582.65,249.195L582.65,249.2ZM350.01,96.43C470.17,96.43 567.92,160.875 567.92,240.12C567.92,268.464 555.025,295.409 532.275,318.37C524.806,310.19 514.232,305.311 502.81,305.311C480.728,305.311 462.763,323.276 462.763,345.358L462.763,379.784C462.763,401.014 445.501,418.272 424.275,418.272C403.064,418.272 385.806,401.01 385.806,379.784C385.806,355.44 365.982,335.616 341.618,335.616L330.149,335.616C302.454,335.616 279.606,356.011 275.376,382.538C275.306,382.765 275.149,382.944 275.099,383.183C274.942,383.936 275.024,384.663 275.087,385.39C274.876,387.347 274.493,389.257 274.493,391.268C274.493,401.596 266.083,410.01 255.751,410.01L249.903,410.01C236.344,410.01 225.313,398.979 225.313,385.42L225.313,315.506C225.313,293.557 207.446,275.686 185.493,275.686C170.141,275.686 157.059,284.253 150.415,296.877C138.712,279.088 132.079,259.846 132.079,240.119C132.072,160.881 229.825,96.429 350.009,96.429L350.01,96.43ZM520.83,328.85C508.725,338.944 494.486,347.987 478.33,355.799L478.33,345.35C478.33,331.85 489.307,320.873 502.807,320.873C509.791,320.877 516.256,323.85 520.83,328.85ZM370.55,383.01C344.605,384.619 317.773,383.108 292.327,378.514C297.69,362.682 312.518,351.186 330.139,351.186L341.608,351.186C357.389,351.186 370.225,364.002 370.225,379.784C370.221,380.886 370.483,381.917 370.549,383.011L370.55,383.01ZM209.73,349.635C190.449,338.85 174.359,326.073 161.89,311.885C163.671,300.17 173.281,291.248 185.48,291.248C198.847,291.248 209.73,302.127 209.73,315.498L209.73,349.635ZM350,463.575C229.82,463.575 132.07,398.407 132.07,318.275L132.07,297.107C136.023,304.15 140.879,310.912 146.238,317.494C146.832,319.006 147.972,320.181 149.32,321.056C164.707,338.862 185.015,354.662 209.734,367.345L209.734,385.415C209.734,407.556 227.754,425.575 249.894,425.575L255.742,425.575C273.812,425.575 288.515,411.473 289.804,393.727C309.382,397.27 329.519,399.392 349.999,399.392C357.995,399.392 365.89,398.907 373.718,398.368C381.335,419.005 401.023,433.837 424.261,433.837C454.073,433.837 478.323,409.587 478.323,379.775L478.323,373.056C519.706,354.49 550.589,328.158 567.776,297.638L567.909,318.271C567.912,398.404 470.159,463.571 349.999,463.571L350,463.575Z" style="fill-rule:nonzero;"/>
        <path d="M350.88,287.38C409.173,287.38 451.5,267.482 451.5,240.079C451.5,212.661 409.176,192.759 350.88,192.759C292.888,192.759 250.79,212.657 250.79,240.079C250.79,267.477 292.888,287.38 350.88,287.38ZM350.88,208.329C401.009,208.329 435.931,225.059 435.931,240.079C435.931,255.099 401.009,271.809 350.88,271.809C301.071,271.809 266.36,255.098 266.36,240.079C266.36,225.056 301.071,208.329 350.88,208.329Z" style="fill-rule:nonzero;"/>
        <path d="M411.55,148.76C412.937,149.768 414.55,150.26 416.144,150.26C418.538,150.26 420.89,149.139 422.429,147.069C424.956,143.592 424.195,138.733 420.738,136.19L410.921,129.014C407.445,126.487 402.605,127.248 400.042,130.705C397.515,134.182 398.277,139.041 401.734,141.584L411.55,148.76Z" style="fill-rule:nonzero;"/>
        <path d="M467.38,201.38C468.673,202.196 470.114,202.595 471.54,202.595C474.122,202.595 476.65,201.302 478.11,198.97L484.603,188.677C486.9,185.032 485.818,180.228 482.193,177.947C478.568,175.65 473.724,176.712 471.462,180.357L464.97,190.65C462.669,194.295 463.751,199.099 467.38,201.38Z" style="fill-rule:nonzero;"/>
        <path d="M325.74,147.47C325.853,147.47 325.967,147.45 326.099,147.45L338.994,146.861C343.287,146.669 346.588,143.025 346.401,138.732C346.209,134.458 343.361,131.404 338.272,131.326L325.377,131.915C321.084,132.107 317.783,135.751 317.97,140.044C318.162,144.204 321.599,147.47 325.74,147.47Z" style="fill-rule:nonzero;"/>
        <path d="M505.89,268.48L517.988,269.734C518.254,269.773 518.519,269.792 518.785,269.792C522.734,269.792 526.113,266.812 526.511,262.804C526.969,258.531 523.851,254.714 519.582,254.277L507.484,253.023C503.308,252.433 499.394,255.683 498.956,259.953C498.503,264.226 501.617,268.042 505.89,268.48Z" style="fill-rule:nonzero;"/>
        <path d="M268.72,293.43L256.853,296.125C252.677,297.075 250.037,301.235 251.005,305.43C251.822,309.039 255.033,311.489 258.583,311.489C259.154,311.489 259.724,311.414 260.31,311.282L272.177,308.586C276.353,307.637 278.993,303.477 278.025,299.282C277.075,295.102 272.974,292.481 268.72,293.43Z" style="fill-rule:nonzero;"/>
        <path d="M426.29,330.61L414.423,333.305C410.247,334.255 407.607,338.415 408.575,342.61C409.392,346.219 412.603,348.669 416.153,348.669C416.724,348.669 417.294,348.594 417.88,348.462L429.747,345.766C433.923,344.817 436.563,340.657 435.595,336.462C434.645,332.262 430.603,329.7 426.29,330.61Z" style="fill-rule:nonzero;"/>
        <path d="M259.09,164.75C259.567,164.844 260.02,164.883 260.457,164.883C264.16,164.883 267.446,162.223 268.11,158.465L270.235,146.504C270.992,142.269 268.164,138.227 263.949,137.484C259.391,136.516 255.672,139.555 254.93,143.77L252.805,155.731C252.043,159.965 254.871,164.008 259.09,164.75Z" style="fill-rule:nonzero;"/>
        <path d="M204.2,184.46C204.712,184.46 205.262,184.401 205.794,184.288L217.7,181.8C221.895,180.925 224.594,176.808 223.719,172.589C222.844,168.413 218.801,165.64 214.508,166.569L202.602,169.058C198.407,169.933 195.708,174.05 196.583,178.269C197.345,181.937 200.595,184.46 204.2,184.46Z" style="fill-rule:nonzero;"/>
        <path d="M204.21,237.55C204.78,237.55 205.351,237.476 205.937,237.343L217.804,234.648C221.979,233.698 224.62,229.538 223.651,225.343C222.702,221.167 218.659,218.527 214.347,219.495L202.48,222.191C198.304,223.14 195.663,227.3 196.632,231.495C197.448,235.101 200.659,237.55 204.21,237.55Z" style="fill-rule:nonzero;"/>
    </g>
</svg>
