<?xml version="1.0" encoding="UTF-8" standalone="no"?>
<!DOCTYPE svg PUBLIC "-//W3C//DTD SVG 1.1//EN" "http://www.w3.org/Graphics/SVG/1.1/DTD/svg11.dtd">
<svg width="100%" height="100%" viewBox="0 0 700 700" version="1.1" xmlns="http://www.w3.org/2000/svg" xmlns:xlink="http://www.w3.org/1999/xlink" xml:space="preserve" xmlns:serif="http://www.serif.com/" style="fill-rule:evenodd;clip-rule:evenodd;stroke-linejoin:round;stroke-miterlimit:2;">
    <rect x="-12" y="-14" width="747" height="796" style="fill:white;"/>
    <g transform="matrix(1,0,0,1,2,38)">
        <path d="M585.55,357.73C584.116,355.257 581.472,353.73 578.609,353.73L546.613,353.73C571.484,344.168 571.492,334.57 571.492,330.355C571.492,322.562 566.621,311.98 532.539,302.441C555.664,295.855 571.492,286.859 571.492,274.527C571.492,266.711 566.597,256.14 532.652,246.629C571.386,235.817 571.492,223.941 571.492,218.68C571.492,207.149 558.844,198.153 532.398,190.778C558.925,183.372 571.492,174.473 571.492,162.852C571.492,117.575 359.032,117.043 349.982,117.043C340.942,117.043 128.492,117.574 128.492,162.852C128.492,177.207 147.769,184.813 162.258,189.266L162.336,189.286C162.59,189.368 164.242,189.977 166.426,191.102C140.762,198.414 128.492,207.293 128.492,218.68C128.492,226.379 133.148,236.996 167.39,246.598C133.14,256.184 128.492,266.821 128.492,274.528C128.492,282.227 133.144,292.848 167.406,302.434C133.152,312.036 128.492,322.657 128.492,330.356C128.492,334.571 128.495,344.168 153.371,353.731L121.375,353.735C118.511,353.735 115.863,355.262 114.433,357.735C113,360.208 112.98,363.266 114.394,365.735L143.847,417.583C152.847,433.466 167.691,442.958 183.535,442.958L516.445,442.958C532.289,442.958 547.133,433.466 556.133,417.583L585.586,365.735C587.004,363.262 586.984,360.204 585.551,357.731L585.55,357.73ZM555.452,274.234C551.589,285.019 479.624,304.257 349.992,304.257C325.769,304.257 302.109,303.425 279.269,301.988C281.593,289.367 282.535,276.347 283.277,265.648C283.351,264.562 283.757,263.648 283.878,262.581C305.159,263.792 327.284,264.491 349.983,264.491C366.147,264.491 381.331,264.085 396.385,263.48C397.303,264.71 398.186,265.827 399.124,267.12C400.065,268.316 422.362,296.202 448.874,292.515C464.429,290.238 477.413,277.796 487.585,255.656C489.659,255.352 491.667,255.043 493.639,254.73C541.139,262.527 554.405,271.843 555.455,274.234L555.452,274.234ZM287.792,246.687C293.261,232.91 303.218,222.414 316.487,218.113C333.514,212.5 353.53,212.933 383.823,247.773C352.237,248.679 319.003,248.347 287.792,246.687ZM494.532,238.253C494.634,237.98 494.735,237.722 494.833,237.449C499.735,224.07 504.501,211.207 512.282,202.34C512.34,202.351 512.379,202.398 512.442,202.41C550.348,210.469 555.169,218.43 555.446,218.43C554.282,221.543 540.598,230.594 494.532,238.254L494.532,238.253ZM144.552,163.108L144.532,163.108C148.532,152.323 220.477,133.124 349.982,133.124C479.622,133.124 551.582,152.362 555.442,162.577C555.423,162.636 552.462,168.992 525.047,176.186C497.613,183.147 488.121,209.069 479.75,231.916L476.141,241.565C470.395,256.409 460.59,274.53 446.571,276.608C432.118,278.725 416.587,263.35 411.981,257.491C376.055,207.96 346.055,191.624 311.501,202.819C286.263,211.034 269.302,234.686 267.224,264.745C264.751,300.198 260.458,334.768 238.044,334.768L237.298,334.768C226.747,334.416 219.044,331.393 213.747,325.553C200.04,310.393 202.294,276.666 204.474,244.076L204.747,240.154C206.255,217.404 199.493,201.486 190.72,190.779C190.232,189.967 189.603,189.299 188.884,188.713C181.533,180.58 173.157,175.736 166.939,173.916C147.783,168.009 144.802,163.107 144.548,163.107L144.552,163.108ZM144.532,218.975C144.552,218.901 148.341,211.733 180.61,204.03C185.325,210.945 188.829,220.995 188.622,235.147C155.36,228.151 145.38,220.866 144.532,218.975ZM144.532,274.803C144.552,274.714 148.986,266.557 187.505,258.326C186.884,269.439 186.619,280.353 187.166,290.67C155.057,283.768 145.389,276.67 144.533,274.803L144.532,274.803ZM144.532,330.627C145.396,328.17 155.747,320.619 190.493,313.51C192.798,322.3 196.279,330.162 201.852,336.315C210.106,345.433 221.852,350.315 236.758,350.807C237.266,350.827 237.758,350.846 238.251,350.846C258.685,350.846 269.399,336.307 275.337,317.877C299.384,319.44 324.396,320.334 349.985,320.334C355.352,320.334 432.407,320.147 494.145,310.522C494.317,310.561 494.449,310.674 494.621,310.706C541.469,318.491 554.43,327.726 555.449,330.061C554.16,333.658 535.301,345.713 468,353.729L231.98,353.729C164.679,345.713 145.824,333.663 144.531,330.627L144.532,330.627ZM542.172,409.654C536.055,420.439 526.426,426.869 516.445,426.869L183.535,426.873C173.555,426.873 163.926,420.44 157.808,409.658L135.179,369.81L564.799,369.81L542.172,409.654Z" style="fill-rule:nonzero;"/>
    </g>
</svg>
