<?xml version="1.0" encoding="UTF-8" standalone="no"?>
<!DOCTYPE svg PUBLIC "-//W3C//DTD SVG 1.1//EN" "http://www.w3.org/Graphics/SVG/1.1/DTD/svg11.dtd">
<svg width="100%" height="100%" viewBox="0 0 700 700" version="1.1" xmlns="http://www.w3.org/2000/svg" xmlns:xlink="http://www.w3.org/1999/xlink" xml:space="preserve" xmlns:serif="http://www.serif.com/" style="fill-rule:evenodd;clip-rule:evenodd;stroke-linejoin:round;stroke-miterlimit:2;">
    <rect x="-13" y="-14" width="731" height="731" style="fill:white;"/>
    <g transform="matrix(1,0,0,1,0,26)">
        <path d="M564.47,207.73C564.04,205.312 562.521,203.226 560.337,202.074L497.001,168.656L537.134,87.461C542.029,77.574 539.65,65.582 531.341,58.309C525.451,53.141 517.712,51.153 510.029,52.828C502.365,54.504 496.166,59.594 492.986,66.769L457.15,147.628L419.923,127.995C417.271,126.573 414.056,126.808 411.579,128.542L353.767,169.452L307.165,129.03C304.747,126.905 301.236,126.495 298.353,127.921L271.451,141.429L201.349,49.421C194.661,40.628 182.845,37.429 172.646,41.64C165.412,44.624 160.166,50.706 158.275,58.312C156.384,65.917 158.158,73.738 163.169,79.781L231.161,161.668L147.938,203.441C145.716,204.55 144.138,206.659 143.669,209.116C143.22,211.573 143.942,214.109 145.618,215.96L187.091,261.565L137.837,309.299C136.103,310.975 135.224,313.354 135.439,315.752C135.654,318.17 136.958,320.334 138.97,321.682L227.677,380.803L240.81,462.639C241.22,465.213 242.857,467.416 245.197,468.549L349.687,519.381C350.819,519.928 352.007,520.201 353.175,520.201C354.382,520.201 355.593,519.928 356.726,519.362L462.646,466.948C465.025,465.776 466.661,463.498 467.013,460.866L479.333,369.343L555.419,326.734C557.446,325.601 558.868,323.652 559.337,321.39C559.806,319.128 559.278,316.769 557.876,314.917L518.528,263.401L562.555,214.479C564.2,212.643 564.899,210.147 564.469,207.729L564.47,207.73ZM507.575,73.25C508.684,70.773 510.833,69.019 513.466,68.434C516.059,67.848 518.77,68.531 520.817,70.324C523.684,72.84 524.52,76.973 522.825,80.386L479.348,168.359C479.348,168.363 479.344,168.363 479.344,168.363C479.344,168.367 479.344,168.371 479.34,168.371L448.485,230.801C448.477,230.817 448.462,230.824 448.454,230.836C448.442,230.856 448.446,230.879 448.434,230.899L437.657,252.708C435.654,252.356 433.915,251.715 432.681,250.626C431.849,249.903 430.896,249.227 429.853,248.606L467.97,162.606C468.009,162.54 468.075,162.501 468.11,162.434C468.185,162.294 468.173,162.141 468.239,162.001L507.575,73.25ZM353.275,333.29L215.395,261.845L284.059,225.392L290.2,232.787C285.118,235.626 279.548,240.603 273.641,249.209C271.145,252.857 272.082,257.826 275.707,260.322C277.09,261.259 278.672,261.728 280.23,261.728C282.766,261.728 285.281,260.501 286.82,258.259C292.75,249.564 298.773,244.65 302.203,245.72C314.062,249.349 326.008,242.572 333.672,236.622C333.727,236.583 333.797,236.579 333.852,236.536C333.903,236.497 333.922,236.439 333.973,236.4C336.922,234.087 339.266,231.915 340.598,230.571C343.7,227.45 343.68,222.4 340.539,219.282C337.739,216.482 333.399,216.364 330.273,218.654L320.613,205.978L353.23,188.65L422.445,225.923L413.387,246.364C408.187,247.352 402.032,249.692 394.688,254.168C390.926,256.469 389.734,261.383 392.016,265.145C394.316,268.946 399.289,270.098 402.993,267.817C411.961,262.337 419.528,260.387 422.181,262.688C427.661,267.466 434.661,269.005 441.388,269.005C441.739,269.005 442.067,268.938 442.415,268.93C442.435,268.93 442.458,268.946 442.477,268.946C442.509,268.946 442.536,268.923 442.571,268.923C451.517,268.684 459.856,265.942 463.399,264.579C467.513,263.001 469.579,258.38 467.981,254.263C466.423,250.13 461.762,248.064 457.665,249.681C457.4,249.782 457.091,249.841 456.818,249.943L458.97,245.587L490.966,262.825L353.275,333.29ZM416.802,144.42L450.665,162.264L428.946,211.264L368.395,178.67L416.802,144.42ZM300.752,144.596L339.244,177.994L310.81,193.092L281.302,154.362L300.752,144.596ZM173.772,62.174C174.417,59.541 176.229,57.455 178.745,56.42C182.276,54.92 186.331,56.049 188.631,59.092L317.471,228.192C314.425,229.786 311.561,230.485 309.007,230.411L175.447,69.581C173.732,67.495 173.107,64.784 173.771,62.17L173.772,62.174ZM164.51,212.994L241.635,174.283L273.639,212.826L199.944,251.947L164.51,212.994ZM199.631,271.654L338.171,343.447L272.675,391.584L239.87,369.725C239.71,369.6 239.546,369.506 239.374,369.393L156.073,313.881L199.631,271.654ZM245.776,392.864L268.46,407.981C269.804,408.879 271.347,409.325 272.886,409.325C274.542,409.325 276.222,408.797 277.624,407.766L345.257,358.067L345.191,499.447L255.918,456.013L245.776,392.864ZM451.746,454.505L361.172,499.333L361.243,357.403L419.923,397.532C422.419,399.247 425.677,399.383 428.329,397.903L461.895,379.106L451.746,454.505ZM539.586,317.295L424.856,381.545L368.86,343.272L505.85,273.155L539.586,317.295ZM506.422,252.983L466.063,231.241L489.922,182.971L543.817,211.416L506.422,252.983Z" style="fill-rule:nonzero;"/>
        <path d="M377.93,264.94C381.887,262.991 383.508,258.194 381.578,254.237C379.61,250.26 374.774,248.678 370.875,250.589C362.532,254.702 351.199,257.413 346.09,253.729C339.579,248.991 327.801,246.378 308.555,260.553C305.005,263.167 304.247,268.159 306.86,271.725C308.419,273.85 310.837,274.983 313.294,274.983C314.95,274.983 316.61,274.475 318.032,273.425C326.473,267.186 333.805,264.593 336.692,266.639C350.747,276.912 371.829,267.925 377.93,264.94Z" style="fill-rule:nonzero;"/>
        <path d="M407.1,274.11C400.159,280.348 389.998,286.024 384.092,283.899C376.545,281.11 364.514,281.794 349.834,300.688C347.143,304.176 347.768,309.188 351.256,311.899C352.717,313.032 354.436,313.575 356.15,313.575C358.529,313.575 360.889,312.505 362.467,310.473C368.881,302.204 375.295,297.543 378.553,298.871C394.991,304.992 412.717,290.547 417.783,286.004C421.06,283.059 421.334,278.008 418.388,274.715C415.404,271.418 410.373,271.184 407.099,274.11L407.1,274.11Z" style="fill-rule:nonzero;"/>
        <path d="M319.21,284.71C309.636,285.491 298.425,282.546 295.401,277.066C291.503,270.046 282.026,262.674 258.491,267.355C254.182,268.234 251.374,272.444 252.233,276.773C253.093,281.062 257.03,283.851 261.651,283.03C271.889,280.964 279.686,281.648 281.424,284.784C289.44,299.292 310.557,300.694 318.412,300.694L319.482,300.694C323.889,300.616 327.4,296.972 327.342,292.562C327.283,288.163 324.143,285.237 319.209,284.71L319.21,284.71Z" style="fill-rule:nonzero;"/>
        <path d="M366.07,222.32C372.582,238.523 395.164,242.035 401.949,242.715C402.222,242.754 402.496,242.774 402.75,242.774C406.804,242.774 410.277,239.692 410.687,235.578C411.137,231.192 407.957,227.274 403.551,226.844C394.289,225.887 383.254,222.203 380.895,216.332C377.891,208.922 369.254,200.246 345.446,202.254C341.059,202.586 337.742,206.406 338.094,210.812C338.426,215.199 341.895,218.613 346.653,218.164C357.122,217.504 364.743,219.023 366.071,222.32L366.07,222.32Z" style="fill-rule:nonzero;"/>
    </g>
</svg>
